<svg width="376" height="27" viewBox="0 0 376 27" fill="none" xmlns="http://www.w3.org/2000/svg">
<path d="M23.3913 18.192C23.6046 17.8507 23.8393 17.68 24.0953 17.68C24.5219 17.68 24.6499 18.0427 24.4793 18.768C24.0099 21.0293 22.7513 22.8853 20.7033 24.336C18.6979 25.744 16.4153 26.448 13.8553 26.448H13.0233C9.18325 26.1493 6.15392 24.6773 3.93525 22.032C1.75925 19.3867 0.777917 16.208 0.99125 12.496C1.24725 9.168 2.48458 6.30933 4.70325 3.92C6.92192 1.53067 9.80192 0.335999 13.3433 0.335999C15.9033 0.335999 18.1006 0.954666 19.9353 2.192C21.8126 3.42933 23.1353 5.264 23.9033 7.696C23.9886 7.952 23.9246 8.144 23.7113 8.272C23.4126 8.44267 22.4313 9.04 20.7673 10.064C19.1459 11.088 18.0366 11.7493 17.4393 12.048H17.3753C17.3326 12.0907 17.2899 12.112 17.2473 12.112C16.9059 12.112 16.7353 11.92 16.7353 11.536C16.9059 9.01867 16.7353 6.75733 16.2233 4.752C15.7539 2.74667 14.9219 1.70133 13.7273 1.616C12.4899 1.616 11.5086 2.27733 10.7833 3.6C10.0579 4.88 9.60992 6.26667 9.43925 7.76C8.92725 11.6853 9.26858 15.1413 10.4633 18.128C11.7006 21.1147 13.7486 22.672 16.6073 22.8C17.9299 22.8 19.2313 22.352 20.5113 21.456C21.8339 20.5173 22.7939 19.4293 23.3913 18.192ZM39.2273 25.616C40.4646 25.616 41.4246 24.464 42.1073 22.16C42.7899 19.856 43.1313 16.9333 43.1313 13.392C43.1313 9.85067 42.7899 6.94933 42.1073 4.688C41.4246 2.384 40.4646 1.232 39.2273 1.232C37.9899 1.232 37.0299 2.384 36.3473 4.688C35.7073 6.94933 35.3873 9.85067 35.3873 13.392C35.3873 16.9333 35.7286 19.856 36.4113 22.16C37.0939 24.464 38.0326 25.616 39.2273 25.616ZM39.2273 0.335999C43.1953 0.335999 46.3099 1.57333 48.5713 4.048C50.8753 6.52267 52.0273 9.63733 52.0273 13.392C52.0273 17.1467 50.8753 20.2827 48.5713 22.8C46.2673 25.2747 43.1526 26.512 39.2273 26.512C35.3019 26.512 32.1873 25.2747 29.8833 22.8C27.6219 20.2827 26.4913 17.1467 26.4913 13.392C26.4913 9.63733 27.6219 6.52267 29.8833 4.048C32.1873 1.57333 35.3019 0.335999 39.2273 0.335999ZM70.3338 0.975998H77.4378C75.6884 3.408 74.8138 7.99467 74.8138 14.736L74.8778 25.872H71.1658L58.0458 5.84C57.9178 6.864 57.8538 7.71733 57.8538 8.4V12.816C57.8538 13.712 58.0031 14.8427 58.3018 16.208C58.6004 17.5307 59.2831 19.1947 60.3498 21.2C61.4164 23.1627 62.7818 24.72 64.4458 25.872H53.3738C55.6351 22.2453 56.7658 17.3173 56.7658 11.088V8.4C56.7658 7.248 56.4671 5.88267 55.8698 4.304C55.3151 2.72533 54.4831 1.616 53.3738 0.975998H64.5098L73.6618 14.992C73.3631 7.99467 72.2538 3.32266 70.3338 0.975998ZM95.7088 0.975998H102.813C101.063 3.408 100.189 7.99467 100.189 14.736L100.253 25.872H96.5408L83.4208 5.84C83.2928 6.864 83.2288 7.71733 83.2288 8.4V12.816C83.2288 13.712 83.3781 14.8427 83.6768 16.208C83.9754 17.5307 84.6581 19.1947 85.7248 21.2C86.7914 23.1627 88.1568 24.72 89.8208 25.872H78.7488C81.0101 22.2453 82.1408 17.3173 82.1408 11.088V8.4C82.1408 7.248 81.8421 5.88267 81.2448 4.304C80.6901 2.72533 79.8581 1.616 78.7488 0.975998H89.8848L99.0368 14.992C98.7381 7.99467 97.6288 3.32266 95.7088 0.975998ZM104.124 0.975998H123.388C123.558 0.975998 123.644 1.06133 123.644 1.232C123.772 3.152 123.985 5.712 124.284 8.912C124.326 9.04 124.284 9.104 124.156 9.104C124.113 9.104 124.049 9.06133 123.964 8.976C123.11 6.97067 121.66 5.30667 119.612 3.984C117.606 2.61867 115.622 1.78667 113.66 1.488C113.318 3.024 113.148 5.66933 113.148 9.424V13.008C114.342 12.88 115.302 12.7093 116.028 12.496C116.796 12.2827 117.585 11.856 118.396 11.216C119.249 10.576 119.889 9.70133 120.316 8.592C120.316 8.54933 120.38 8.528 120.508 8.528C120.593 8.528 120.636 8.57067 120.636 8.656V18.256C120.636 18.384 120.572 18.448 120.444 18.448C120.358 18.448 120.316 18.4053 120.316 18.32C119.889 17.2107 119.249 16.336 118.396 15.696C117.585 15.056 116.796 14.6293 116.028 14.416C115.302 14.2027 114.342 14.032 113.148 13.904V17.488C113.148 21.3707 113.34 24.016 113.724 25.424C115.644 25.1253 117.606 24.3147 119.612 22.992C121.617 21.6693 123.046 20.0267 123.9 18.064C123.985 17.9787 124.049 17.936 124.092 17.936C124.305 17.936 124.369 18.0213 124.284 18.192C123.985 21.264 123.772 23.76 123.644 25.68C123.644 25.808 123.58 25.872 123.452 25.872H104.124C104.508 25.1893 104.806 23.7173 105.02 21.456C105.233 19.152 105.34 17.36 105.34 16.08V10.896C105.34 9.57333 105.233 7.76 105.02 5.456C104.806 3.152 104.508 1.65866 104.124 0.975998ZM148.954 18.192C149.167 17.8507 149.402 17.68 149.658 17.68C150.084 17.68 150.212 18.0427 150.042 18.768C149.572 21.0293 148.314 22.8853 146.266 24.336C144.26 25.744 141.978 26.448 139.418 26.448H138.586C134.746 26.1493 131.716 24.6773 129.498 22.032C127.322 19.3867 126.34 16.208 126.554 12.496C126.81 9.168 128.047 6.30933 130.266 3.92C132.484 1.53067 135.364 0.335999 138.906 0.335999C141.466 0.335999 143.663 0.954666 145.498 2.192C147.375 3.42933 148.698 5.264 149.466 7.696C149.551 7.952 149.487 8.144 149.274 8.272C148.975 8.44267 147.994 9.04 146.33 10.064C144.708 11.088 143.599 11.7493 143.002 12.048H142.938C142.895 12.0907 142.852 12.112 142.81 12.112C142.468 12.112 142.298 11.92 142.298 11.536C142.468 9.01867 142.298 6.75733 141.786 4.752C141.316 2.74667 140.484 1.70133 139.29 1.616C138.052 1.616 137.071 2.27733 136.346 3.6C135.62 4.88 135.172 6.26667 135.002 7.76C134.49 11.6853 134.831 15.1413 136.026 18.128C137.263 21.1147 139.311 22.672 142.17 22.8C143.492 22.8 144.794 22.352 146.074 21.456C147.396 20.5173 148.356 19.4293 148.954 18.192ZM175.862 1.232C175.947 2.42666 176.374 6.90667 177.142 14.672C177.142 14.7573 177.099 14.8213 177.014 14.864C176.971 14.864 176.928 14.8213 176.886 14.736C176.16 11.7493 174.987 8.93333 173.366 6.288C171.744 3.6 170.102 2.02133 168.438 1.552C168.139 3.088 167.99 6.20267 167.99 10.896V16.016C167.99 17.2533 168.096 19.024 168.31 21.328C168.566 23.632 168.864 25.1467 169.206 25.872H159.03C159.371 25.1467 159.648 23.632 159.862 21.328C160.118 19.024 160.246 17.2533 160.246 16.016V10.896C160.246 6.62933 160.096 3.51466 159.798 1.552C158.091 2.02133 156.427 3.57867 154.806 6.224C153.227 8.86933 152.075 11.7067 151.35 14.736C151.307 14.8213 151.243 14.864 151.158 14.864C151.115 14.8213 151.094 14.7573 151.094 14.672C151.862 6.992 152.288 2.49067 152.374 1.168C152.374 1.04 152.438 0.975998 152.566 0.975998H175.606C175.776 0.975998 175.862 1.06133 175.862 1.232ZM202.608 23.248C203.376 23.248 203.91 23.1413 204.208 22.928C201.648 20.9227 199.195 18.2987 196.848 15.056C196.507 16.7627 196.699 18.384 197.424 19.92C197.766 20.6453 198.406 21.392 199.344 22.16C200.283 22.8853 201.371 23.248 202.608 23.248ZM204.08 1.488C203.27 1.488 202.502 1.78667 201.776 2.384C201.094 2.93867 200.774 3.856 200.816 5.136C200.859 6.84267 201.584 8.74133 202.992 10.832C204.144 10.2773 205.126 9.53067 205.936 8.592C206.79 7.65333 207.259 6.65067 207.344 5.584C207.43 4.51733 207.152 3.57867 206.512 2.768C205.915 1.91467 205.104 1.488 204.08 1.488ZM218.224 22.8C218.48 23.6533 218.075 24.5067 217.008 25.36C215.942 26.1707 214.555 26.576 212.848 26.576C210.758 26.576 208.624 25.8933 206.448 24.528C206.32 24.4 206.107 24.2507 205.808 24.08C205.51 23.9093 205.275 23.76 205.104 23.632C203.355 25.552 200.902 26.512 197.744 26.512C195.952 26.512 194.438 25.9787 193.2 24.912C192.006 23.8453 191.344 22.4373 191.216 20.688C191.088 17.7867 192.667 15.3973 195.952 13.52C194.928 11.7707 194.331 10.0853 194.16 8.464C193.904 5.904 194.779 3.94133 196.784 2.576C198.832 1.168 201.328 0.463999 204.272 0.463999C206.704 0.463999 208.795 0.975999 210.544 2C212.336 2.98133 213.254 4.368 213.296 6.16C213.296 7.86667 212.4 9.232 210.608 10.256C208.859 11.28 206.619 11.8773 203.888 12.048C204.23 12.4747 204.592 12.9227 204.976 13.392C205.36 13.8187 205.723 14.2453 206.064 14.672C206.448 15.056 206.704 15.3333 206.832 15.504C207.856 16.6133 209.072 17.744 210.48 18.896C211.206 18.0427 211.483 17.1253 211.312 16.144C211.227 14.8213 210.288 13.9253 208.496 13.456C208.411 13.456 208.368 13.392 208.368 13.264C208.411 12.88 208.88 12.4533 209.776 11.984C210.715 11.5147 211.739 11.2587 212.848 11.216C214.512 11.216 215.792 11.7707 216.688 12.88C217.584 13.9893 217.819 15.184 217.392 16.464C216.795 18.256 214.982 19.4293 211.952 19.984C214.299 21.6907 216.39 22.6293 218.224 22.8ZM242.648 10.896V16.016C242.648 17.2533 242.754 19.024 242.968 21.328C243.224 23.632 243.522 25.1467 243.864 25.872H233.624C234.008 25.1893 234.306 23.7173 234.52 21.456C234.733 19.152 234.84 17.3387 234.84 16.016V10.896C234.84 9.57333 234.733 7.76 234.52 5.456C234.306 3.152 234.008 1.65866 233.624 0.975998H243.864C243.522 1.65866 243.224 3.17333 242.968 5.52C242.754 7.86667 242.648 9.65867 242.648 10.896ZM246.436 0.975998H258.148L262.82 14.48L266.852 0.975998H275.812C275.428 1.65866 275.13 3.152 274.916 5.456C274.703 7.76 274.596 9.57333 274.596 10.896V16.016C274.596 17.3387 274.703 19.152 274.916 21.456C275.13 23.7173 275.428 25.1893 275.812 25.872H265.572C265.914 25.1467 266.191 23.632 266.404 21.328C266.66 19.024 266.788 17.2533 266.788 16.016V5.136L260.836 25.872H258.212L251.3 5.072C251.087 6.992 250.98 8.464 250.98 9.488V14.416C250.98 16.208 251.428 18.256 252.324 20.56C253.263 22.8213 254.436 24.592 255.844 25.872H246.5C247.652 24.6347 248.506 22.9707 249.06 20.88C249.658 18.7467 249.914 16.912 249.828 15.376V9.488C249.914 7.90933 249.636 6.24533 248.996 4.496C248.356 2.74667 247.503 1.57333 246.436 0.975998ZM287.398 16.784H287.974C289.595 16.6987 290.875 15.8667 291.814 14.288C292.795 12.7093 293.264 10.896 293.222 8.848C293.222 6.97067 292.774 5.328 291.878 3.92C290.982 2.46933 289.723 1.744 288.102 1.744C287.803 1.744 287.59 1.76533 287.462 1.808L287.398 16.016V16.784ZM301.03 9.104C301.03 14.6933 296.507 17.488 287.462 17.488C287.675 22.0107 288.059 24.8053 288.614 25.872H278.374C278.758 25.1893 279.056 23.7173 279.27 21.456C279.483 19.152 279.59 17.3387 279.59 16.016V10.896C279.59 9.57333 279.483 7.76 279.27 5.456C279.056 3.152 278.758 1.65866 278.374 0.975998H287.718C296.592 0.975998 301.03 3.68533 301.03 9.104ZM299.406 25.872C301.71 23.9947 303.78 20.56 305.614 15.568L310.99 0.335999H314.382L320.974 17.424C321.06 17.5947 321.23 18.0213 321.486 18.704C321.785 19.344 321.977 19.8133 322.062 20.112C322.19 20.368 322.382 20.7947 322.638 21.392C322.937 21.9467 323.172 22.3947 323.342 22.736C323.513 23.0773 323.726 23.4613 323.982 23.888C324.281 24.3147 324.558 24.6987 324.814 25.04C325.07 25.3387 325.348 25.616 325.646 25.872H314.126C314.766 25.1893 314.468 23.0987 313.23 19.6H306.062C305.849 22.3307 306.617 24.4213 308.366 25.872H299.406ZM307.342 14.416C306.83 15.7813 306.446 17.168 306.19 18.576H312.91C312.825 18.32 312.697 18 312.526 17.616C312.398 17.232 312.292 16.912 312.206 16.656C312.121 16.4 312.036 16.1867 311.95 16.016L309.39 8.592L307.342 14.416ZM347.766 18.192C347.98 17.8507 348.214 17.68 348.47 17.68C348.897 17.68 349.025 18.0427 348.854 18.768C348.385 21.0293 347.126 22.8853 345.078 24.336C343.073 25.744 340.79 26.448 338.23 26.448H337.398C333.558 26.1493 330.529 24.6773 328.31 22.032C326.134 19.3867 325.153 16.208 325.366 12.496C325.622 9.168 326.86 6.30933 329.078 3.92C331.297 1.53067 334.177 0.335999 337.718 0.335999C340.278 0.335999 342.476 0.954666 344.31 2.192C346.188 3.42933 347.51 5.264 348.278 7.696C348.364 7.952 348.3 8.144 348.086 8.272C347.788 8.44267 346.806 9.04 345.142 10.064C343.521 11.088 342.412 11.7493 341.814 12.048H341.75C341.708 12.0907 341.665 12.112 341.622 12.112C341.281 12.112 341.11 11.92 341.11 11.536C341.281 9.01867 341.11 6.75733 340.598 4.752C340.129 2.74667 339.297 1.70133 338.102 1.616C336.865 1.616 335.884 2.27733 335.158 3.6C334.433 4.88 333.985 6.26667 333.814 7.76C333.302 11.6853 333.644 15.1413 334.838 18.128C336.076 21.1147 338.124 22.672 340.982 22.8C342.305 22.8 343.606 22.352 344.886 21.456C346.209 20.5173 347.169 19.4293 347.766 18.192ZM374.674 1.232C374.76 2.42666 375.186 6.90667 375.954 14.672C375.954 14.7573 375.912 14.8213 375.826 14.864C375.784 14.864 375.741 14.8213 375.698 14.736C374.973 11.7493 373.8 8.93333 372.178 6.288C370.557 3.6 368.914 2.02133 367.25 1.552C366.952 3.088 366.802 6.20267 366.802 10.896V16.016C366.802 17.2533 366.909 19.024 367.122 21.328C367.378 23.632 367.677 25.1467 368.018 25.872H357.842C358.184 25.1467 358.461 23.632 358.674 21.328C358.93 19.024 359.058 17.2533 359.058 16.016V10.896C359.058 6.62933 358.909 3.51466 358.61 1.552C356.904 2.02133 355.24 3.57867 353.618 6.224C352.04 8.86933 350.888 11.7067 350.162 14.736C350.12 14.8213 350.056 14.864 349.97 14.864C349.928 14.8213 349.906 14.7573 349.906 14.672C350.674 6.992 351.101 2.49067 351.186 1.168C351.186 1.04 351.25 0.975998 351.378 0.975998H374.418C374.589 0.975998 374.674 1.06133 374.674 1.232Z" fill="#0F3E3D"/>
</svg>
