<svg width="269" height="106" viewBox="0 0 269 106" fill="none" xmlns="http://www.w3.org/2000/svg">
<path d="M107.742 65.896V71.016C107.742 72.2533 107.848 74.024 108.062 76.328C108.318 78.632 108.616 80.1467 108.958 80.872H98.7175C99.1015 80.1893 99.4002 78.7173 99.6135 76.456C99.8268 74.152 99.9335 72.3387 99.9335 71.016V65.896C99.9335 64.5733 99.8268 62.76 99.6135 60.456C99.4002 58.152 99.1015 56.6587 98.7175 55.976H108.958C108.616 56.6587 108.318 58.1733 108.062 60.52C107.848 62.8667 107.742 64.6587 107.742 65.896ZM111.53 55.976H123.242L127.914 69.48L131.946 55.976H140.906C140.522 56.6587 140.223 58.152 140.01 60.456C139.797 62.76 139.69 64.5733 139.69 65.896V71.016C139.69 72.3387 139.797 74.152 140.01 76.456C140.223 78.7173 140.522 80.1893 140.906 80.872H130.666C131.007 80.1467 131.285 78.632 131.498 76.328C131.754 74.024 131.882 72.2533 131.882 71.016V60.136L125.93 80.872H123.306L116.394 60.072C116.181 61.992 116.074 63.464 116.074 64.488V69.416C116.074 71.208 116.522 73.256 117.418 75.56C118.357 77.8213 119.53 79.592 120.938 80.872H111.594C112.746 79.6347 113.599 77.9707 114.154 75.88C114.751 73.7467 115.007 71.912 114.922 70.376V64.488C115.007 62.9093 114.73 61.2453 114.09 59.496C113.45 57.7467 112.597 56.5733 111.53 55.976ZM152.492 71.784H153.068C154.689 71.6987 155.969 70.8667 156.908 69.288C157.889 67.7093 158.358 65.896 158.316 63.848C158.316 61.9707 157.868 60.328 156.972 58.92C156.076 57.4693 154.817 56.744 153.196 56.744C152.897 56.744 152.684 56.7653 152.556 56.808L152.492 71.016V71.784ZM166.124 64.104C166.124 69.6933 161.601 72.488 152.556 72.488C152.769 77.0107 153.153 79.8053 153.708 80.872H143.468C143.852 80.1893 144.15 78.7173 144.364 76.456C144.577 74.152 144.684 72.3387 144.684 71.016V65.896C144.684 64.5733 144.577 62.76 144.364 60.456C144.15 58.152 143.852 56.6587 143.468 55.976H152.812C161.686 55.976 166.124 58.6853 166.124 64.104ZM164.5 80.872C166.804 78.9947 168.873 75.56 170.708 70.568L176.084 55.336H179.476L186.068 72.424C186.153 72.5947 186.324 73.0213 186.58 73.704C186.879 74.344 187.071 74.8133 187.156 75.112C187.284 75.368 187.476 75.7947 187.732 76.392C188.031 76.9467 188.265 77.3947 188.436 77.736C188.607 78.0773 188.82 78.4613 189.076 78.888C189.375 79.3147 189.652 79.6987 189.908 80.04C190.164 80.3387 190.441 80.616 190.74 80.872H179.22C179.86 80.1893 179.561 78.0987 178.324 74.6H171.156C170.943 77.3307 171.711 79.4213 173.46 80.872H164.5ZM172.436 69.416C171.924 70.7813 171.54 72.168 171.284 73.576H178.004C177.919 73.32 177.791 73 177.62 72.616C177.492 72.232 177.385 71.912 177.3 71.656C177.215 71.4 177.129 71.1867 177.044 71.016L174.484 63.592L172.436 69.416ZM212.86 73.192C213.073 72.8507 213.308 72.68 213.564 72.68C213.991 72.68 214.119 73.0427 213.948 73.768C213.479 76.0293 212.22 77.8853 210.172 79.336C208.167 80.744 205.884 81.448 203.324 81.448H202.492C198.652 81.1493 195.623 79.6773 193.404 77.032C191.228 74.3867 190.247 71.208 190.46 67.496C190.716 64.168 191.953 61.3093 194.172 58.92C196.391 56.5307 199.271 55.336 202.812 55.336C205.372 55.336 207.569 55.9547 209.404 57.192C211.281 58.4293 212.604 60.264 213.372 62.696C213.457 62.952 213.393 63.144 213.18 63.272C212.881 63.4427 211.9 64.04 210.236 65.064C208.615 66.088 207.505 66.7493 206.908 67.048H206.844C206.801 67.0907 206.759 67.112 206.716 67.112C206.375 67.112 206.204 66.92 206.204 66.536C206.375 64.0187 206.204 61.7573 205.692 59.752C205.223 57.7467 204.391 56.7013 203.196 56.616C201.959 56.616 200.977 57.2773 200.252 58.6C199.527 59.88 199.079 61.2667 198.908 62.76C198.396 66.6853 198.737 70.1413 199.932 73.128C201.169 76.1147 203.217 77.672 206.076 77.8C207.399 77.8 208.7 77.352 209.98 76.456C211.303 75.5173 212.263 74.4293 212.86 73.192ZM239.768 56.232C239.853 57.4267 240.28 61.9067 241.048 69.672C241.048 69.7573 241.005 69.8213 240.92 69.864C240.877 69.864 240.835 69.8213 240.792 69.736C240.067 66.7493 238.893 63.9333 237.272 61.288C235.651 58.6 234.008 57.0213 232.344 56.552C232.045 58.088 231.896 61.2027 231.896 65.896V71.016C231.896 72.2533 232.003 74.024 232.216 76.328C232.472 78.632 232.771 80.1467 233.112 80.872H222.936C223.277 80.1467 223.555 78.632 223.768 76.328C224.024 74.024 224.152 72.2533 224.152 71.016V65.896C224.152 61.6293 224.003 58.5147 223.704 56.552C221.997 57.0213 220.333 58.5787 218.712 61.224C217.133 63.8693 215.981 66.7067 215.256 69.736C215.213 69.8213 215.149 69.864 215.064 69.864C215.021 69.8213 215 69.7573 215 69.672C215.768 61.992 216.195 57.4907 216.28 56.168C216.28 56.04 216.344 55.976 216.472 55.976H239.512C239.683 55.976 239.768 56.0613 239.768 56.232Z" fill="#D4E8E8"/>
<path d="M72.3583 71.248C73.1263 71.248 73.6596 71.1413 73.9583 70.928C71.3983 68.9227 68.9449 66.2987 66.5983 63.056C66.2569 64.7627 66.4489 66.384 67.1743 67.92C67.5156 68.6453 68.1556 69.392 69.0943 70.16C70.0329 70.8853 71.1209 71.248 72.3583 71.248ZM73.8303 49.488C73.0196 49.488 72.2516 49.7867 71.5263 50.384C70.8436 50.9387 70.5236 51.856 70.5663 53.136C70.6089 54.8427 71.3343 56.7413 72.7423 58.832C73.8943 58.2773 74.8756 57.5307 75.6863 56.592C76.5396 55.6533 77.0089 54.6507 77.0943 53.584C77.1796 52.5173 76.9023 51.5787 76.2623 50.768C75.6649 49.9147 74.8543 49.488 73.8303 49.488ZM87.9743 70.8C88.2303 71.6533 87.8249 72.5067 86.7583 73.36C85.6916 74.1707 84.3049 74.576 82.5983 74.576C80.5076 74.576 78.3743 73.8933 76.1983 72.528C76.0703 72.4 75.8569 72.2507 75.5583 72.08C75.2596 71.9093 75.0249 71.76 74.8542 71.632C73.1049 73.552 70.6516 74.512 67.4943 74.512C65.7023 74.512 64.1876 73.9787 62.9503 72.912C61.7556 71.8453 61.0943 70.4373 60.9663 68.688C60.8383 65.7867 62.4169 63.3973 65.7023 61.52C64.6783 59.7707 64.0809 58.0853 63.9103 56.464C63.6543 53.904 64.5289 51.9413 66.5343 50.576C68.5823 49.168 71.0783 48.464 74.0223 48.464C76.4543 48.464 78.5449 48.976 80.2943 50C82.0863 50.9813 83.0036 52.368 83.0463 54.16C83.0463 55.8667 82.1503 57.232 80.3583 58.256C78.6089 59.28 76.3689 59.8773 73.6383 60.048C73.9796 60.4747 74.3423 60.9227 74.7263 61.392C75.1103 61.8187 75.4729 62.2453 75.8143 62.672C76.1983 63.056 76.4543 63.3333 76.5823 63.504C77.6063 64.6133 78.8223 65.744 80.2303 66.896C80.9556 66.0427 81.2329 65.1253 81.0623 64.144C80.9769 62.8213 80.0383 61.9253 78.2463 61.456C78.1609 61.456 78.1183 61.392 78.1183 61.264C78.1609 60.88 78.6303 60.4533 79.5263 59.984C80.4649 59.5147 81.4889 59.2587 82.5983 59.216C84.2623 59.216 85.5423 59.7707 86.4383 60.88C87.3343 61.9893 87.5689 63.184 87.1423 64.464C86.5449 66.256 84.7316 67.4293 81.7023 67.984C84.0489 69.6907 86.1396 70.6293 87.9743 70.8Z" fill="#D4E8E8"/>
<g filter="url(#filter0_f_29_18)">
<ellipse cx="36" cy="31" rx="26" ry="21" fill="#8CBD62"/>
</g>
<path d="M41.2975 35.192C41.5108 34.8507 41.7455 34.68 42.0015 34.68C42.4282 34.68 42.5562 35.0427 42.3855 35.768C41.9162 38.0293 40.6575 39.8853 38.6095 41.336C36.6042 42.744 34.3215 43.448 31.7615 43.448H30.9295C27.0895 43.1493 24.0602 41.6773 21.8415 39.032C19.6655 36.3867 18.6842 33.208 18.8975 29.496C19.1535 26.168 20.3908 23.3093 22.6095 20.92C24.8282 18.5307 27.7082 17.336 31.2495 17.336C33.8095 17.336 36.0068 17.9547 37.8415 19.192C39.7188 20.4293 41.0415 22.264 41.8095 24.696C41.8948 24.952 41.8308 25.144 41.6175 25.272C41.3188 25.4427 40.3375 26.04 38.6735 27.064C37.0522 28.088 35.9428 28.7493 35.3455 29.048H35.2815C35.2388 29.0907 35.1962 29.112 35.1535 29.112C34.8122 29.112 34.6415 28.92 34.6415 28.536C34.8122 26.0187 34.6415 23.7573 34.1295 21.752C33.6602 19.7467 32.8282 18.7013 31.6335 18.616C30.3962 18.616 29.4148 19.2773 28.6895 20.6C27.9642 21.88 27.5162 23.2667 27.3455 24.76C26.8335 28.6853 27.1748 32.1413 28.3695 35.128C29.6068 38.1147 31.6548 39.672 34.5135 39.8C35.8362 39.8 37.1375 39.352 38.4175 38.456C39.7402 37.5173 40.7002 36.4293 41.2975 35.192ZM57.1335 42.616C58.3708 42.616 59.3308 41.464 60.0135 39.16C60.6962 36.856 61.0375 33.9333 61.0375 30.392C61.0375 26.8507 60.6962 23.9493 60.0135 21.688C59.3308 19.384 58.3708 18.232 57.1335 18.232C55.8962 18.232 54.9362 19.384 54.2535 21.688C53.6135 23.9493 53.2935 26.8507 53.2935 30.392C53.2935 33.9333 53.6348 36.856 54.3175 39.16C55.0002 41.464 55.9388 42.616 57.1335 42.616ZM57.1335 17.336C61.1015 17.336 64.2162 18.5733 66.4775 21.048C68.7815 23.5227 69.9335 26.6373 69.9335 30.392C69.9335 34.1467 68.7815 37.2827 66.4775 39.8C64.1735 42.2747 61.0588 43.512 57.1335 43.512C53.2082 43.512 50.0935 42.2747 47.7895 39.8C45.5282 37.2827 44.3975 34.1467 44.3975 30.392C44.3975 26.6373 45.5282 23.5227 47.7895 21.048C50.0935 18.5733 53.2082 17.336 57.1335 17.336ZM88.24 17.976H95.344C93.5947 20.408 92.72 24.9947 92.72 31.736L92.784 42.872H89.072L75.952 22.84C75.824 23.864 75.76 24.7173 75.76 25.4V29.816C75.76 30.712 75.9093 31.8427 76.208 33.208C76.5067 34.5307 77.1893 36.1947 78.256 38.2C79.3227 40.1627 80.688 41.72 82.352 42.872H71.28C73.5413 39.2453 74.672 34.3173 74.672 28.088V25.4C74.672 24.248 74.3733 22.8827 73.776 21.304C73.2213 19.7253 72.3893 18.616 71.28 17.976H82.416L91.568 31.992C91.2693 24.9947 90.16 20.3227 88.24 17.976ZM113.615 17.976H120.719C118.97 20.408 118.095 24.9947 118.095 31.736L118.159 42.872H114.447L101.327 22.84C101.199 23.864 101.135 24.7173 101.135 25.4V29.816C101.135 30.712 101.284 31.8427 101.583 33.208C101.882 34.5307 102.564 36.1947 103.631 38.2C104.698 40.1627 106.063 41.72 107.727 42.872H96.655C98.9163 39.2453 100.047 34.3173 100.047 28.088V25.4C100.047 24.248 99.7483 22.8827 99.151 21.304C98.5963 19.7253 97.7643 18.616 96.655 17.976H107.791L116.943 31.992C116.644 24.9947 115.535 20.3227 113.615 17.976ZM122.03 17.976H141.294C141.465 17.976 141.55 18.0613 141.55 18.232C141.678 20.152 141.891 22.712 142.19 25.912C142.233 26.04 142.19 26.104 142.062 26.104C142.019 26.104 141.955 26.0613 141.87 25.976C141.017 23.9707 139.566 22.3067 137.518 20.984C135.513 19.6187 133.529 18.7867 131.566 18.488C131.225 20.024 131.054 22.6693 131.054 26.424V30.008C132.249 29.88 133.209 29.7093 133.934 29.496C134.702 29.2827 135.491 28.856 136.302 28.216C137.155 27.576 137.795 26.7013 138.222 25.592C138.222 25.5493 138.286 25.528 138.414 25.528C138.499 25.528 138.542 25.5707 138.542 25.656V35.256C138.542 35.384 138.478 35.448 138.35 35.448C138.265 35.448 138.222 35.4053 138.222 35.32C137.795 34.2107 137.155 33.336 136.302 32.696C135.491 32.056 134.702 31.6293 133.934 31.416C133.209 31.2027 132.249 31.032 131.054 30.904V34.488C131.054 38.3707 131.246 41.016 131.63 42.424C133.55 42.1253 135.513 41.3147 137.518 39.992C139.523 38.6693 140.953 37.0267 141.806 35.064C141.891 34.9787 141.955 34.936 141.998 34.936C142.211 34.936 142.275 35.0213 142.19 35.192C141.891 38.264 141.678 40.76 141.55 42.68C141.55 42.808 141.486 42.872 141.358 42.872H122.03C122.414 42.1893 122.713 40.7173 122.926 38.456C123.139 36.152 123.246 34.36 123.246 33.08V27.896C123.246 26.5733 123.139 24.76 122.926 22.456C122.713 20.152 122.414 18.6587 122.03 17.976ZM166.86 35.192C167.073 34.8507 167.308 34.68 167.564 34.68C167.991 34.68 168.119 35.0427 167.948 35.768C167.479 38.0293 166.22 39.8853 164.172 41.336C162.167 42.744 159.884 43.448 157.324 43.448H156.492C152.652 43.1493 149.623 41.6773 147.404 39.032C145.228 36.3867 144.247 33.208 144.46 29.496C144.716 26.168 145.953 23.3093 148.172 20.92C150.391 18.5307 153.271 17.336 156.812 17.336C159.372 17.336 161.569 17.9547 163.404 19.192C165.281 20.4293 166.604 22.264 167.372 24.696C167.457 24.952 167.393 25.144 167.18 25.272C166.881 25.4427 165.9 26.04 164.236 27.064C162.615 28.088 161.505 28.7493 160.908 29.048H160.844C160.801 29.0907 160.759 29.112 160.716 29.112C160.375 29.112 160.204 28.92 160.204 28.536C160.375 26.0187 160.204 23.7573 159.692 21.752C159.223 19.7467 158.391 18.7013 157.196 18.616C155.959 18.616 154.977 19.2773 154.252 20.6C153.527 21.88 153.079 23.2667 152.908 24.76C152.396 28.6853 152.737 32.1413 153.932 35.128C155.169 38.1147 157.217 39.672 160.076 39.8C161.399 39.8 162.7 39.352 163.98 38.456C165.303 37.5173 166.263 36.4293 166.86 35.192ZM193.768 18.232C193.853 19.4267 194.28 23.9067 195.048 31.672C195.048 31.7573 195.005 31.8213 194.92 31.864C194.877 31.864 194.835 31.8213 194.792 31.736C194.067 28.7493 192.893 25.9333 191.272 23.288C189.651 20.6 188.008 19.0213 186.344 18.552C186.045 20.088 185.896 23.2027 185.896 27.896V33.016C185.896 34.2533 186.003 36.024 186.216 38.328C186.472 40.632 186.771 42.1467 187.112 42.872H176.936C177.277 42.1467 177.555 40.632 177.768 38.328C178.024 36.024 178.152 34.2533 178.152 33.016V27.896C178.152 23.6293 178.003 20.5147 177.704 18.552C175.997 19.0213 174.333 20.5787 172.712 23.224C171.133 25.8693 169.981 28.7067 169.256 31.736C169.213 31.8213 169.149 31.864 169.064 31.864C169.021 31.8213 169 31.7573 169 31.672C169.768 23.992 170.195 19.4907 170.28 18.168C170.28 18.04 170.344 17.976 170.472 17.976H193.512C193.683 17.976 193.768 18.0613 193.768 18.232Z" fill="#D4E8E8"/>
<defs>
<filter id="filter0_f_29_18" x="0" y="0" width="72" height="62" filterUnits="userSpaceOnUse" color-interpolation-filters="sRGB">
<feFlood flood-opacity="0" result="BackgroundImageFix"/>
<feBlend mode="normal" in="SourceGraphic" in2="BackgroundImageFix" result="shape"/>
<feGaussianBlur stdDeviation="5" result="effect1_foregroundBlur_29_18"/>
</filter>
</defs>
</svg>
